<?xml version="1.0" encoding="utf-8"?>
<!-- Generator: Adobe Illustrator 22.1.0, SVG Export Plug-In . SVG Version: 6.00 Build 0)  -->
<svg version="1.1" id="Layer_1" xmlns="http://www.w3.org/2000/svg" xmlns:xlink="http://www.w3.org/1999/xlink" x="0px" y="0px"
	 viewBox="0 0 320 151" style="enable-background:new 0 0 320 151;" xml:space="preserve">
<style type="text/css">
	.st0{fill:#FFFFFF;}
	.st1{fill:none;stroke:#FFFFFF;stroke-width:0.5;stroke-miterlimit:10;}
</style>
<g>
	<path class="st0" d="M8.8,17.7c2.3-0.5,7.1-0.8,11.5-0.8c5.4,0,8.8,0.5,11.6,2.2c2.7,1.5,4.7,4.2,4.7,7.7c0,3.5-2,6.8-6.5,8.4v0.1
		c4.5,1.2,7.8,4.6,7.8,9.7c0,3.6-1.6,6.4-4.1,8.4C31,55.7,26.2,57,18.4,57c-4.4,0-7.7-0.3-9.6-0.6V17.7z M17.6,32.8h2.9
		c4.7,0,7.2-1.9,7.2-4.9c0-3-2.3-4.6-6.3-4.6c-1.9,0-3,0.1-3.8,0.2V32.8z M17.6,50.3c0.9,0.1,1.9,0.1,3.4,0.1c4,0,7.6-1.5,7.6-5.7
		c0-4-3.6-5.6-8-5.6h-3V50.3z"/>
	<path class="st0" d="M75.9,55.5c-1.6,0.8-5.3,1.7-10.1,1.7c-13.6,0-20.6-8.5-20.6-19.7c0-13.4,9.6-20.9,21.5-20.9
		c4.6,0,8.1,0.9,9.7,1.8l-1.8,7.1c-1.8-0.8-4.3-1.5-7.5-1.5c-7.1,0-12.6,4.3-12.6,13c0,7.9,4.7,12.9,12.6,12.9
		c2.7,0,5.7-0.6,7.4-1.3L75.9,55.5z"/>
	<path class="st0" d="M93.1,24.7H82.5v-7.5h30.3v7.5H102v31.9h-8.9V24.7z"/>
	<path class="st0" d="M131.4,56.6l-12.6-39.4h9.8l4.8,16.7c1.3,4.7,2.6,9.2,3.5,14.1h0.2c1-4.7,2.2-9.4,3.6-13.9l5-16.8h9.5
		l-13.3,39.4H131.4z"/>
	<path class="st0" d="M178.1,17.2h5.1v19h0.2c1.1-1.5,2.1-2.9,3.1-4.2l12-14.8h6.3l-14.3,16.7l15.4,22.7h-6l-13-19.3l-3.7,4.3v15
		h-5.1V17.2z"/>
	<path class="st0" d="M213.1,15.1h5.1v41.5h-5.1V15.1z"/>
	<path class="st0" d="M253.5,48.9c0,2.9,0.1,5.5,0.2,7.7h-4.6l-0.3-4.6h-0.1c-1.3,2.3-4.3,5.3-9.4,5.3c-4.4,0-9.8-2.5-9.8-12.4V28.3
		h5.1V44c0,5.4,1.6,9,6.3,9c3.4,0,5.8-2.4,6.8-4.7c0.3-0.8,0.5-1.7,0.5-2.6V28.3h5.1V48.9z"/>
	<path class="st0" d="M264.7,56.6c0.1-1.9,0.2-4.8,0.2-7.3V15.1h5.1v17.8h0.1c1.8-3.2,5.1-5.2,9.6-5.2c7,0,12,5.8,11.9,14.4
		c0,10.1-6.4,15.1-12.7,15.1c-4.1,0-7.4-1.6-9.5-5.3h-0.2l-0.2,4.7H264.7z M270,45.3c0,0.6,0.1,1.3,0.2,1.9c1,3.6,4,6,7.7,6
		c5.4,0,8.6-4.4,8.6-10.9c0-5.7-2.9-10.5-8.4-10.5c-3.5,0-6.8,2.4-7.8,6.3c-0.1,0.6-0.3,1.3-0.3,2.1V45.3z"/>
</g>
<polygon class="st0" points="19.1,68.8 23.5,77.7 33.3,79.1 26.2,86.1 27.9,95.9 19.1,91.2 10.3,95.9 12,86.1 4.9,79.1 14.7,77.7 
	"/>
<polygon class="st0" points="53,68.8 57.4,77.7 67.3,79.1 60.1,86.1 61.8,95.9 53,91.2 44.3,95.9 45.9,86.1 38.8,79.1 48.6,77.7 "/>
<polygon class="st0" points="87,68.8 91.3,77.7 101.2,79.1 94.1,86.1 95.7,95.9 87,91.2 78.2,95.9 79.8,86.1 72.7,79.1 82.6,77.7 
	"/>
<polygon class="st0" points="120.9,68.8 125.3,77.7 135.1,79.1 128,86.1 129.7,95.9 120.9,91.2 112.1,95.9 113.8,86.1 106.7,79.1 
	116.5,77.7 "/>
<polygon class="st0" points="154.8,68.8 159.2,77.7 169,79.1 161.9,86.1 163.6,95.9 154.8,91.2 146,95.9 147.7,86.1 140.6,79.1 
	150.4,77.7 "/>
<line class="st1" x1="4.9" y1="109.9" x2="305.8" y2="109.9"/>
<g>
	<path class="st0" d="M5.6,137.1l8.4-12.3v-0.1H6.3v-1.6h10.2v1.2l-8.4,12.3v0.1h8.5v1.6H5.6V137.1z"/>
	<path class="st0" d="M26,133.5l-1.6,4.8h-2l5.2-15.2h2.4l5.2,15.2H33l-1.6-4.8H26z M31,132l-1.5-4.4c-0.3-1-0.6-1.9-0.8-2.8h0
		c-0.2,0.9-0.5,1.8-0.8,2.7l-1.5,4.4H31z"/>
	<path class="st0" d="M64,130.5c0,5.2-3.2,8-7,8c-4,0-6.8-3.1-6.8-7.7c0-4.8,3-8,7-8C61.3,122.9,64,126,64,130.5z M52.3,130.8
		c0,3.2,1.8,6.1,4.8,6.1c3.1,0,4.9-2.9,4.9-6.3c0-3-1.6-6.2-4.8-6.2C53.9,124.5,52.3,127.5,52.3,130.8z"/>
	<path class="st0" d="M71,138.3v-15.2h2.1l4.9,7.7c1.1,1.8,2,3.4,2.7,4.9l0,0c-0.2-2-0.2-3.9-0.2-6.2v-6.3h1.8v15.2h-2l-4.8-7.7
		c-1.1-1.7-2.1-3.4-2.8-5.1l-0.1,0c0.1,1.9,0.2,3.7,0.2,6.3v6.5H71z"/>
	<path class="st0" d="M98.2,131.2h-5.9v5.5h6.6v1.6h-8.5v-15.2h8.2v1.6h-6.2v4.8h5.9V131.2z"/>
	<path class="st0" d="M115.2,123.1h2v7.3h0.1c0.4-0.6,0.8-1.1,1.2-1.6l4.6-5.7h2.4l-5.5,6.4l5.9,8.7h-2.3l-5-7.4l-1.4,1.7v5.8h-2
		V123.1z"/>
	<path class="st0" d="M144.4,130.5c0,5.2-3.2,8-7,8c-4,0-6.8-3.1-6.8-7.7c0-4.8,3-8,7-8C141.7,122.9,144.4,126,144.4,130.5z
		 M132.6,130.8c0,3.2,1.8,6.1,4.8,6.1c3.1,0,4.9-2.9,4.9-6.3c0-3-1.6-6.2-4.8-6.2C134.3,124.5,132.6,127.5,132.6,130.8z"/>
	<path class="st0" d="M154.5,123.1h2v10.1c0,4-2,5.3-4.6,5.3c-0.7,0-1.6-0.2-2.1-0.4l0.3-1.6c0.4,0.2,1,0.3,1.6,0.3
		c1.8,0,2.8-0.8,2.8-3.8V123.1z"/>
	<path class="st0" d="M166.2,123.1v15.2h-2v-15.2H166.2z"/>
	<path class="st0" d="M182.3,137.1l8.4-12.3v-0.1h-7.7v-1.6h10.2v1.2l-8.4,12.3v0.1h8.5v1.6h-11.1V137.1z M187.4,122.3l-2.3-2.6h1.6
		l1.4,1.6h0l1.4-1.6h1.6l-2.3,2.6H187.4z"/>
	<path class="st0" d="M208.2,131.2h-5.9v5.5h6.6v1.6h-8.5v-15.2h8.2v1.6h-6.2v4.8h5.9V131.2z"/>
	<path class="st0" d="M215.9,123.1h2v13.5h6.5v1.6h-8.4V123.1z"/>
	<path class="st0" d="M238.8,131.2h-5.9v5.5h6.6v1.6H231v-15.2h8.2v1.6h-6.2v4.8h5.9V131.2z"/>
	<path class="st0" d="M258.3,138.3l-5-15.2h2.1l2.4,7.5c0.7,2,1.2,3.9,1.6,5.7h0c0.4-1.8,1.1-3.7,1.7-5.6l2.6-7.5h2.1l-5.4,15.2
		H258.3z"/>
	<path class="st0" d="M274,123.1v15.2h-2v-15.2H274z"/>
	<path class="st0" d="M281.6,135.9c0.9,0.5,2.2,1,3.5,1c2,0,3.2-1.1,3.2-2.6c0-1.4-0.8-2.2-2.9-3c-2.5-0.9-4-2.2-4-4.3
		c0-2.4,2-4.1,4.9-4.1c1.6,0,2.7,0.4,3.4,0.7l-0.5,1.6c-0.5-0.3-1.5-0.7-2.9-0.7c-2.1,0-2.9,1.2-2.9,2.3c0,1.4,0.9,2.1,3,2.9
		c2.6,1,3.9,2.2,3.9,4.5c0,2.3-1.7,4.4-5.3,4.4c-1.5,0-3.1-0.4-3.9-1L281.6,135.9z M285.2,122.2l-2.4-2.6h1.7l1.4,1.6h0l1.4-1.6h1.6
		l-2.3,2.6H285.2z"/>
	<path class="st0" d="M305.3,131.2h-5.9v5.5h6.6v1.6h-8.5v-15.2h8.2v1.6h-6.2v4.8h5.9V131.2z"/>
</g>
<g>
	<path class="st0" d="M292.6,55.5h-0.8v-0.3h2v0.3H293v2.4h-0.4V55.5z"/>
	<path class="st0" d="M296.4,56.7c0-0.4,0-0.8,0-1.2h0c-0.1,0.3-0.2,0.7-0.3,1l-0.5,1.3h-0.3l-0.4-1.3c-0.1-0.4-0.2-0.7-0.3-1h0
		c0,0.3,0,0.8-0.1,1.2l-0.1,1.2H294l0.2-2.7h0.4l0.5,1.3c0.1,0.3,0.2,0.6,0.3,0.9h0c0.1-0.3,0.2-0.6,0.3-0.9l0.5-1.3h0.4l0.2,2.7
		h-0.3L296.4,56.7z"/>
</g>
<g>
	<path class="st0" d="M309.6,123.5h-0.8v-0.3h2v0.3H310v2.4h-0.4V123.5z"/>
	<path class="st0" d="M313.4,124.7c0-0.4,0-0.8,0-1.2h0c-0.1,0.3-0.2,0.7-0.3,1l-0.5,1.3h-0.3l-0.4-1.3c-0.1-0.4-0.2-0.7-0.3-1h0
		c0,0.3,0,0.8-0.1,1.2l-0.1,1.2H311l0.2-2.7h0.4l0.5,1.3c0.1,0.3,0.2,0.6,0.3,0.9h0c0.1-0.3,0.2-0.6,0.3-0.9l0.5-1.3h0.4l0.2,2.7
		h-0.3L313.4,124.7z"/>
</g>
</svg>
